HIERARCHY
ROOT Hips
{
	OFFSET 0.00000 0.00000 0.00000
	CHANNELS 6 Xposition Yposition Zposition Zrotation Yrotation Xrotation 
	JOINT LHipJoint
	{
		OFFSET 0 0 0
		CHANNELS 3 Zrotation Yrotation Xrotation
		JOINT LeftHip
		{
			OFFSET 1.38615 -1.80049 0.80104
			CHANNELS 3 Zrotation Yrotation Xrotation
			JOINT LeftKnee
			{
				OFFSET 2.50172 -6.87341 0.00000
				CHANNELS 3 Zrotation Yrotation Xrotation
				JOINT LeftAnkle
				{
					OFFSET 2.67523 -7.35014 0.00000
					CHANNELS 3 Zrotation Yrotation Xrotation
					JOINT LeftToe
					{
						OFFSET 0.17446 -0.47932 2.13155
						CHANNELS 3 Zrotation Yrotation Xrotation
						End Site
						{
							OFFSET 0.00000 -0.00000 1.10023
						}
					}
				}
			}
		}
	}
	JOINT RHipJoint
	{
		OFFSET 0 0 0
		CHANNELS 3 Zrotation Yrotation Xrotation
		JOINT RightHip
		{
			OFFSET -1.18047 -1.80049 0.80104
			CHANNELS 3 Zrotation Yrotation Xrotation
			JOINT RightKnee
			{
				OFFSET -2.59789 -7.13765 0.00000
				CHANNELS 3 Zrotation Yrotation Xrotation
				JOINT RightAnkle
				{
					OFFSET -2.62125 -7.20183 0.00000
					CHANNELS 3 Zrotation Yrotation Xrotation
					JOINT RightToe
					{
						OFFSET -0.31287 -0.85960 2.07814
						CHANNELS 3 Zrotation Yrotation Xrotation
						End Site
						{
							OFFSET -0.00000 -0.00000 1.11766
						}
					}
				}
			}
		}
	}
	JOINT lowerback
	{
		OFFSET 0 0 0
		CHANNELS 3 Zrotation Yrotation Xrotation
		JOINT Chest
		{
			OFFSET -0.01587 2.16157 -0.12309
			CHANNELS 3 Zrotation Yrotation Xrotation
			JOINT Chest2
			{
				OFFSET 0.04727 2.16674 -0.03569
				CHANNELS 3 Zrotation Yrotation Xrotation
				JOINT lowerneck
				{
					OFFSET 0 0 0
					CHANNELS 3 Zrotation Yrotation Xrotation
					JOINT Neck
					{
						OFFSET -0.08586 1.60335 0.32783
						CHANNELS 3 Zrotation Yrotation Xrotation
						JOINT Head
						{
							OFFSET 0.07583 1.65857 -0.31618
							CHANNELS 3 Zrotation Yrotation Xrotation
							End Site
							{
								OFFSET 0.03386 1.69434 -0.14584
							}
						}
					}
				}
				JOINT LeftCollar
				{
					OFFSET 0 0 0
					CHANNELS 3 Zrotation Yrotation Xrotation
					JOINT LeftShoulder
					{
						OFFSET 3.17393 1.01901 -0.52897
CHANNELS 3 Zrotation Xrotation Yrotation
						JOINT LeftElbow
						{
OFFSET 0 -5.252870 -0.000000
CHANNELS 3 Zrotation Xrotation Yrotation
							JOINT LeftWrist
							{
OFFSET 0 -3.510140 0.000000
CHANNELS 3 Zrotation Xrotation Yrotation
								JOINT lhand
								{
									OFFSET 0 0 0
CHANNELS 3 Zrotation Xrotation Yrotation
									JOINT LFingers
									{
OFFSET 0 -0.706180 -0.000000
CHANNELS 3 Zrotation Xrotation Yrotation
										End Site
										{
OFFSET 0 -0.569340 -0.000000
										}
									}
								}
								JOINT LThumb
								{
OFFSET 0 0.000000 0.000000
CHANNELS 3 Zrotation Xrotation Yrotation
									End Site
									{
OFFSET 0 -0.578030 0.578030
									}
								}
							}
						}
					}
				}
				JOINT RightCollar
				{
					OFFSET 0 0 0
					CHANNELS 3 Zrotation Yrotation Xrotation
					JOINT RightShoulder
					{
						OFFSET -2.99471 1.26495 -0.61125
CHANNELS 3 Zrotation Xrotation Yrotation
						JOINT RightElbow
						{
OFFSET 0 -5.287210 -0.000000
CHANNELS 3 Zrotation Xrotation Yrotation
							JOINT RightWrist
							{
OFFSET 0 -3.505440 0.000000
CHANNELS 3 Zrotation Xrotation Yrotation
								JOINT rhand
								{
									OFFSET 0 0 0
CHANNELS 3 Zrotation Xrotation Yrotation
									JOINT RFingers
									{
OFFSET 0 -0.885000 -0.000000
CHANNELS 3 Zrotation Xrotation Yrotation
										End Site
										{
OFFSET 0 -0.713510 -0.000000
										}
									}
								}
								JOINT RThumb
								{
OFFSET 0 0.000000 0.000000
CHANNELS 3 Zrotation Xrotation Yrotation
									End Site
									{
OFFSET 0 -0.724400 0.724400
									}
								}
							}
						}
					}
				}
			}
		}
	}
}
MOTION
Frames: 10
Frame Time: .0083333
11.8658 17.1146 10.0872 335.5590 -78.1264 -317.3700 0.0000 0.0000 0.0000 -4.1975 -9.6192 -57.6879 6.9038 15.2503 48.5094 -0.1930 -12.3507 -5.7427 0.0078 0.5716 1.5708 0.0000 0.0000 0.0000 11.1113 5.3569 -52.8328 -5.9860 -14.4148 44.9256 0.1950 -10.2684 -10.8730 -1.8968 8.6477 -24.6995 -3.2368 0.0401 28.5744 -0.4175 -1.5751 9.1958 1.9333 -1.0733 -5.3782 -11.4959 -0.3504 -18.6270 8.2319 0.4608 25.7874 5.0709 0.0158 11.4071 0.0000 -0.0000 0.0000 5.4687 -13.4246 -41.6357 49.7617 -52.8989 25.984 19.3204 18.9082 -31.072 0.0 0.0 0.0 -7.1250 0.0 0.0 -14.7552 61.9408 6.1535 0.0000 -0.0000 0.0000 -78.9814 -31.909 -50.8281 -77.3524 -59.3869 -49.0694 -21.7904 -73.7407 22.5044 0.0 0.0 0.0 7.1250 0.0 -0.0 7.5441 53.8683 -1.652
11.7193 17.1883 10.0844 336.0830 -77.9435 -318.1960 0.0000 0.0000 0.0000 -4.3922 -9.5237 -56.3421 6.7364 15.1058 47.8702 -0.1636 -12.6084 -6.4799 0.0163 0.8253 2.2683 0.0000 0.0000 0.0000 11.2449 5.3727 -51.7471 -5.9107 -14.3412 44.6222 0.2093 -10.6288 -11.2508 -1.8152 8.4700 -24.1511 -3.2118 0.0217 28.3941 -0.4324 -1.5619 8.9258 1.8987 -1.0474 -5.5968 -11.4083 -0.6020 -18.6808 8.4637 0.0084 25.9231 5.0883 -0.1542 11.5226 0.0000 0.0000 0.0000 5.574 -12.8802 -41.5372 48.6997 -52.4574 25.1394 18.6959 17.4977 -31.6679 0.0 0.0 0.0 -7.1250 0.0 0.0 -15.9112 62.3584 6.8055 0.0000 0.0000 0.0000 -78.2019 -31.7927 -50.0446 -76.4062 -59.2901 -48.2555 -23.7054 -72.7062 22.129 0.0 0.0 0.0 7.1250 0.0 -0.0 5.4430 53.8451 -1.1863
11.5719 17.2309 10.0887 337.3400 -77.9118 -319.6100 0.0000 0.0000 0.0000 -4.8010 -9.4743 -55.2174 6.6015 14.9870 47.3507 -0.1303 -12.8080 -7.1741 0.0010 0.2003 0.5502 0.0000 0.0000 0.0000 11.3208 5.1744 -50.8459 -5.8416 -14.2731 44.3427 0.2346 -10.9896 -11.3878 -2.0536 8.9768 -25.7227 -3.0990 0.0223 27.6817 -0.6308 -1.5018 8.8592 1.5810 -1.0120 -5.3444 -11.2096 -0.8507 -18.6564 8.7424 -0.4774 25.7508 5.0840 -0.3117 11.5096 -0.0000 -0.0000 0.0000 5.9266 -12.6294 -41.718 47.7582 -52.0504 24.395 17.5416 15.4611 -32.0503 0.0 0.0 0.0 -7.1250 0.0 0.0 -17.5082 62.4291 7.5393 -0.0000 -0.0000 0.0000 -77.3918 -31.4081 -49.4465 -76.0093 -59.2473 -47.9143 -25.6644 -72.3366 21.4576 0.0 0.0 0.0 7.1250 0.0 -0.0 3.2094 53.5124 -0.6724
11.4225 17.2706 10.0900 338.7990 -77.7118 -321.2870 0.0000 0.0000 0.0000 -5.1626 -9.5018 -54.0963 6.4893 14.8863 46.9154 -0.1130 -12.8803 -7.4903 0.0004 0.1213 0.3332 0.0000 0.0000 0.0000 11.3467 5.0959 -49.7675 -5.7856 -14.2173 44.1149 0.3100 -11.9185 -11.5990 -2.3299 9.5218 -27.4416 -3.1344 -0.0550 27.3533 -0.7011 -1.5745 8.5749 1.5435 -1.0271 -5.5012 -11.2922 -1.0139 -18.5863 9.3478 -0.8742 25.7971 5.2751 -0.4278 11.5608 -0.0000 0.0000 0.0000 6.0698 -11.9616 -41.4703 46.8225 -51.6307 23.6592 16.0901 13.5186 -32.4151 0.0 0.0 0.0 -7.1250 0.0 0.0 -19.4202 62.4026 8.3825 -0.0000 0.0000 0.0000 -76.5441 -31.1822 -48.5065 -75.4851 -59.1888 -47.4639 -24.4389 -72.5128 22.1422 0.0 0.0 0.0 7.1250 0.0 -0.0 4.6868 54.002 -1.0389
11.2689 17.3184 10.0847 338.1760 -77.2866 -320.9080 0.0000 0.0000 0.0000 -4.8948 -9.4807 -52.9952 6.3812 14.7878 46.4930 -0.0790 -12.8800 -7.9757 0.0251 -1.0237 -2.8139 0.0000 0.0000 0.0000 11.8713 5.2714 -48.7424 -5.7573 -14.1889 43.9995 0.4092 -12.9821 -11.7116 -2.4617 9.7680 -28.2286 -2.9245 -0.1044 26.8475 -0.5448 -1.5286 8.3925 1.5719 -0.9941 -5.4628 -11.4428 -1.2073 -18.4807 9.9567 -1.2779 25.6060 5.4679 -0.5470 11.5200 0.0000 0.0000 0.0000 6.1246 -11.4676 -41.3331 45.8582 -51.182 22.9055 15.4282 12.2315 -32.8778 0.0 0.0 0.0 -7.1250 0.0 0.0 -20.5544 62.6637 9.0203 0.0000 0.0000 0.0000 -76.1162 -31.0864 -47.9497 -74.3892 -59.0589 -46.5233 -22.6638 -72.7997 22.5271 0.0 0.0 0.0 7.1250 0.0 -0.0 6.6538 54.0602 -1.4868
11.1178 17.3636 10.0784 336.5500 -76.8359 -319.5410 0.0000 0.0000 0.0000 -4.3416 -9.3795 -51.9204 6.2641 14.6794 46.0325 -0.0421 -12.8825 -8.4833 0.1490 -2.4878 -6.8559 0.0000 0.0000 0.0000 12.8085 5.0981 -48.0165 -5.7692 -14.2009 44.0484 0.4432 -13.3336 -11.7601 -2.4783 9.7983 -28.3260 -2.4832 -0.0568 26.3354 -0.3027 -1.2999 8.2186 1.5066 -0.8744 -5.4210 -11.5653 -1.4851 -18.3866 10.3635 -1.7469 25.4131 5.5689 -0.7171 11.4938 0.0000 0.0000 0.0000 6.1845 -11.0756 -41.6806 44.9838 -50.7605 22.2262 15.1173 11.0673 -33.5392 0.0 0.0 0.0 -7.1250 0.0 0.0 -21.5065 63.1926 9.7255 0.0000 0.0000 0.0000 -75.8911 -30.6009 -47.3965 -73.3688 -58.9286 -45.6488 -22.8807 -72.8694 22.7105 0.0 0.0 0.0 7.1250 0.0 -0.0 6.4943 54.2939 -1.488
10.9730 17.4171 10.0798 337.5740 -76.5639 -320.9100 0.0000 0.0000 0.0000 -4.5471 -9.5110 -50.5933 6.1220 14.5455 45.4692 -0.0416 -12.7061 -8.3575 0.1394 -2.4061 -6.6294 0.0000 0.0000 0.0000 12.9887 4.5976 -47.3314 -5.8362 -14.2677 44.3206 0.4569 -13.4134 -11.6223 -2.5558 9.9387 -28.7786 -2.2645 -0.0557 25.9978 -0.3195 -1.2198 8.0983 1.3338 -0.8272 -5.3977 -11.5464 -1.8509 -18.3571 10.6597 -2.3429 25.2108 5.5842 -0.9425 11.4958 0.0000 -0.0000 0.0000 6.3058 -10.7427 -41.9561 44.1640 -50.3523 21.5931 14.6668 9.9149 -34.0301 0.0 0.0 0.0 -7.1250 0.0 0.0 -22.4759 63.5222 10.3598 0.0000 -0.0000 0.0000 -75.5238 -30.0535 -46.764 -70.9599 -58.5849 -43.5891 -20.073 -71.7615 22.7782 0.0 0.0 0.0 7.1250 0.0 -0.0 9.4017 53.8231 -2.0534
10.8268 17.4686 10.0875 339.3520 -76.4149 -323.0130 0.0000 0.0000 0.0000 -4.9879 -9.7964 -49.1444 5.9583 14.3878 44.8140 -0.0902 -12.1643 -7.2329 0.0019 -0.2792 -0.7673 0.0000 0.0000 0.0000 12.7520 4.2898 -46.6471 -5.9600 -14.3895 44.8211 0.4905 -13.6316 -11.3370 -2.6924 10.1796 -29.5604 -2.1511 -0.0801 25.6710 -0.4743 -1.2086 7.9466 1.0924 -0.8108 -5.4116 -11.3398 -2.1491 -18.1697 10.8444 -2.8717 24.8314 5.5220 -1.1344 11.3873 0.0000 0.0000 0.0000 6.558 -10.327 -42.0606 43.4151 -49.968 21.0181 14.4009 8.9152 -34.3148 0.0 0.0 0.0 -7.1250 0.0 0.0 -23.0517 63.7096 10.7404 0.0000 0.0000 0.0000 -75.1431 -29.5958 -46.3885 -71.0576 -58.5998 -43.6725 -22.1419 -72.0448 23.9615 0.0 0.0 0.0 7.1250 0.0 -0.0 7.7359 55.4451 -1.9921
10.6778 17.5147 10.0998 340.7250 -76.5017 -324.5850 0.0000 0.0000 0.0000 -5.4007 -10.0711 -47.7903 5.8023 14.2340 44.1829 -0.0406 -11.7701 -7.6677 0.0017 0.2642 0.7258 0.0000 0.0000 0.0000 12.3980 4.3246 -46.1322 -6.1209 -14.5445 45.4651 0.5324 -13.9751 -11.1845 -2.7169 10.2221 -29.6989 -2.6666 0.1548 25.2812 -0.2198 -0.9811 7.7010 1.5947 -0.6907 -5.4828 -11.5565 -2.4499 -18.1124 10.8000 -3.2107 24.7068 5.4870 -1.3099 11.3801 -0.0000 0.0000 0.0000 6.1236 -9.821 -42.1701 42.6227 -49.5493 20.4132 14.0995 8.109 -34.6076 0.0 0.0 0.0 -7.1250 0.0 0.0 -23.6812 63.893 11.1513 -0.0000 0.0000 0.0000 -75.454 -29.0057 -45.97 -70.7130 -58.5467 -43.3785 -24.9799 -72.4919 24.1213 0.0 0.0 0.0 7.1250 0.0 -0.0 4.7841 56.2042 -1.3167
10.5300 17.5623 10.1049 342.7570 -76.5391 -327.0280 0.0000 0.0000 0.0000 -6.0409 -10.2652 -46.2473 5.6628 14.0934 43.6129 0.0579 -11.4086 -8.8232 0.0963 -2.0009 -5.5082 0.0000 0.0000 0.0000 11.9148 4.2979 -45.4945 -6.3103 -14.7225 46.2148 0.5877 -14.4403 -11.0404 -2.4303 9.7100 -28.0425 -2.4824 0.1437 25.0889 -0.6915 -0.9691 7.5417 0.9704 -0.6727 -5.5763 -11.0335 -2.6487 -17.9649 11.1573 -3.7700 24.5868 5.4430 -1.4751 11.3785 0.0000 -0.0000 0.0000 6.9435 -9.2765 -42.2932 41.8955 -49.1537 19.8614 13.5923 7.1063 -34.692 0.0 0.0 0.0 -7.1250 0.0 0.0 -24.3226 63.8329 11.4369 0.0000 -0.0000 0.0000 -74.3859 -28.5529 -45.3536 -69.8817 -58.414 -42.6698 -27.0139 -72.5198 23.584 0.0 0.0 0.0 7.1250 0.0 -0.0 2.4055 56.0694 -0.6534
